<?xml version="1.0" standalone="no"?>
<svg
  width="600"
  height="600"
  viewBox="0 0 600 600"
  xmlns="http://www.w3.org/2000/svg"
>
  <g transform="translate(300,300)">
    <path d="M136.2,-201.3C155.2,-173.6,134.7,-105.4,123.1,-59.3C111.6,-13.2,109.1,10.7,116,52.6C122.9,94.5,139.3,154.5,121.6,181.9C103.8,209.3,51.9,204.1,8.7,192.1C-34.5,180.1,-69,161.3,-100,138.2C-131.1,115.1,-158.8,87.8,-162.4,57.3C-166.1,26.8,-145.8,-7,-134,-43.5C-122.1,-80,-118.7,-119.3,-97.7,-146.3C-76.8,-173.4,-38.4,-188.2,10.1,-202.1C58.6,-216,117.2,-228.9,136.2,-201.3Z" fill="#FFB4BC" />
  </g>
</svg>
