<svg xmlns="http://www.w3.org/2000/svg" width="195.873" height="404.418" viewBox="0 0 195.873 404.418"><path d="M25.492-2.539c35.71-10.9,96.087-6.4,138.507,0s24.991,28.433,21.372,51.363,6.143,35.535,5.759,55.893-14.623,23.615-10.4,54.953S200.578,196.151,200,224.6s.558,40.247-8.87,75.583,18.491,63.286-5.759,86.989-60-12.069-86.344-11.675-70.423,11.675-70.423,11.675S6.773,391.181,4.384,357.781,18.1,278.645,19.051,253.569s-8.186-49.916-8.186-49.916-13.088-32.551,4.39-76.035C25.392,102.4,15.631,64.866,7.2,37.7S9.547,1.279,25.492-2.539Z" transform="translate(-4.143 9.132)" fill="red"/></svg>