<svg xmlns="http://www.w3.org/2000/svg" width="199.06" height="405.418" viewBox="0 0 199.06 405.418"><path d="M28.605,2.151c35.71-10.9,70.838-12.3,118.62,0s45.408,21.141,43.9,47.038,4.928,31.058,2.856,54.4-17.479,24.747-13.254,56.085S200.578,196.151,200,224.6s.558,40.247-8.87,75.583,18.491,63.286-5.759,86.989-64.861,3.269-91.24,7.822-65.527-7.822-65.527-7.822S6.773,391.181,4.384,357.781,18.1,278.645,19.051,253.569s-8.186-49.916-8.186-49.916-13.088-32.551,4.39-76.035,1.1-32.859,0-51.721S8.2,64.724,4.384,45.75-7.1,13.051,28.605,2.151Z" transform="translate(-0.956 6.556)" fill="red"/></svg>