<svg xmlns="http://www.w3.org/2000/svg" width="195.873" height="396.927" viewBox="0 0 195.873 396.927"><path d="M28.605,2.151c35.71-10.9,88.751,3.242,133.958,0s15.457,22.218,22.808,46.674,6.143,35.535,5.759,55.893-14.623,23.615-10.4,54.953S200.578,196.151,200,224.6s.558,40.247-8.87,75.583,18.491,63.286-5.759,86.989-58.9-15.23-85.277-10.677-71.489,10.677-71.489,10.677S6.773,391.181,4.384,357.781,18.1,278.645,19.051,253.569s-8.186-49.916-8.186-49.916-13.088-32.551,4.39-76.035C25.392,102.4,15.631,64.866,7.2,37.7S13.607,6.729,28.605,2.151Z" transform="translate(-4.143 2.049)" fill="red"/></svg>